<?xml version="1.0"?>
<svg xmlns="http://www.w3.org/2000/svg" xmlns:xlink="http://www.w3.org/1999/xlink" version="1.1" id="Capa_1" x="0px" y="0px" viewBox="0 0 512 512" style="enable-background:new 0 0 512 512;" xml:space="preserve" width="512px" height="512px" class=""><g><g>
	<g>
		<path d="M511.588,103.992c-2.32-25.523-14.322-50.304-33.797-69.778C458.316,14.74,433.535,2.738,408.012,0.417    c-26.544-2.411-50.732,5.823-68.099,23.192l-0.814,0.815l-0.68,0.927C226.808,177.595,234.885,166.593,231.984,170.222    l-96.812-96.81v63.636H71.537l92.318,92.318L37.511,328.833c-4.995,3.132-9.649,6.828-13.894,11.072    c-35.901,35.899-29.686,97.587,10.605,137.878c39.893,39.894,101.685,46.797,137.877,10.606c4.244-4.244,7.939-8.898,11.07-13.89    l99.471-126.348l93.485,93.485v-63.636h63.635l-97.973-97.974c4.322-3.458-5.986,4.188,144.875-106.443l0.926-0.678l0.811-0.811    C505.764,154.724,514.002,130.539,511.588,103.992z M143.959,167.047h21.212v-21.212l46.013,46.012    c-4.224,3.659-4.132,3.511-23.593,18.832L143.959,167.047z M55.433,456.571c-28.815-28.815-34.004-71.341-11.093-94.937    l10.11-7.96c22.684-13.402,52.674-7.355,74.377,8.29l-62.788,62.788l56.495,56.494C101.4,484.582,75.676,476.815,55.433,456.571z     M158.314,457.573l-7.502,9.529l-42.35-42.349l41.577-41.577C166.058,405.399,171.475,435.322,158.314,457.573z M194.175,412.023    c-3.917-22.565-15.319-44.148-32.682-61.511c-17.362-17.363-38.946-28.764-61.51-32.682L200.9,238.379    c32.639,13.639,59.087,40.087,72.725,72.726L194.175,412.023z M265.671,246.334c-11.358-11.358-24.441-21.035-38.594-28.655    c7.396-6.089,14.337-12.684,20.737-19.764c29.332,13.463,52.818,36.95,66.28,66.282c-7.087,6.405-13.681,13.342-19.767,20.732    C286.705,270.775,277.029,257.693,265.671,246.334z M367.338,348.001h-21.212v21.212l-44.798-44.798    c15.401-19.563,15.21-19.411,18.833-23.592L367.338,348.001z M467.932,150.116L338.22,245.237    c-15.75-30.731-40.722-55.703-71.454-71.453c21.123-28.803,87.335-119.093,95.123-129.712    c10.919-10.448,26.296-15.336,43.407-13.78c18.548,1.686,36.761,10.612,51.282,25.134c14.521,14.521,23.448,32.734,25.135,51.281    C483.268,123.828,478.381,139.195,467.932,150.116z" data-original="#000000" class="active-path" data-old_color="#000000" fill="#FFFFFF"/>
	</g>
</g></g> </svg>
