<?xml version="1.0"?>
<svg xmlns="http://www.w3.org/2000/svg" xmlns:xlink="http://www.w3.org/1999/xlink" version="1.1" id="Capa_1" x="0px" y="0px" viewBox="0 0 512 512" style="enable-background:new 0 0 512 512;" xml:space="preserve" width="512px" height="512px" class=""><g><g>
	<g>
		<path d="M512,281.26l-47.73-75.66H352v102.54h-26.75V128.72h-24.82c6.4-13.91,5.85-30.7-2.94-44.57    c-6.67-10.55-17.06-17.86-29.24-20.6c-12.18-2.73-24.69-0.56-35.24,6.12c-4.42,2.81-11.22,8.57-21.85,26.18    c-10.63-17.61-17.43-23.37-21.85-26.18c-10.55-6.68-23.06-8.85-35.24-6.12c-12.18,2.74-22.57,10.05-29.25,20.6    c-8.78,13.87-9.33,30.66-2.94,44.57H97.07v179.42H0v88.46h31.28c-0.02,0.5-0.03,1-0.03,1.5c0,28.4,23.1,51.5,51.5,51.5    s51.5-23.1,51.5-51.5c0-0.5-0.01-1-0.03-1.5h243.56c-0.02,0.5-0.03,1-0.03,1.5c0,28.4,23.1,51.5,51.5,51.5    c28.4,0,51.5-23.1,51.5-51.5c0-0.5-0.01-1-0.03-1.5H512V281.26z M295.25,158.72v149.42H254V158.72H295.25z M249.06,95.01    c2.71-1.71,5.78-2.6,8.92-2.6c1.23,0,2.47,0.14,3.7,0.41c4.36,0.98,8.08,3.6,10.47,7.38c1.75,2.77,2.59,5.87,2.59,8.93    c0,5.54-2.75,10.98-7.78,14.16c-4.17,2.58-19.96,4.59-38.58,5.27c-0.16-0.35-0.33-0.71-0.51-1.08    C236.42,111.02,244.94,97.67,249.06,95.01z M198.317,158.72H224v149.42h-25.683V158.72z M150.17,100.2    c2.39-3.78,6.11-6.4,10.47-7.38c4.36-0.98,8.84-0.2,12.62,2.19c4.11,2.66,12.63,16.01,21.18,32.49c-0.17,0.37-0.34,0.72-0.51,1.07    c-18.6-0.68-34.4-2.69-38.58-5.28C147.56,118.35,145.23,108,150.17,100.2z M127.07,158.72h41.247v149.42H127.07V158.72z     M82.75,419.6c-11.85,0-21.5-9.64-21.5-21.5c0-0.5,0.02-1,0.06-1.5c0.76-11.16,10.09-20,21.44-20s20.68,8.84,21.44,20    c0.04,0.5,0.06,1,0.06,1.5C104.25,409.96,94.6,419.6,82.75,419.6z M352,366.6H123.47c-9.43-12.16-24.17-20-40.72-20    s-31.29,7.84-40.72,20H30v-28.46h322V366.6z M429.25,419.6c-11.85,0-21.5-9.64-21.5-21.5c0-0.5,0.02-1,0.06-1.5    c0.76-11.16,10.09-20,21.44-20c11.35,0,20.68,8.84,21.44,20c0.04,0.5,0.06,1,0.06,1.5C450.75,409.96,441.1,419.6,429.25,419.6z     M482,366.6h-12.03c-9.43-12.16-24.17-20-40.72-20s-31.29,7.84-40.72,20H382v-50.5h68.607v-30H382v-50.5h65.73L482,289.94V366.6z" data-original="#000000" class="active-path" data-old_color="#000000" fill="#FFFFFF"/>
	</g>
</g><g>
	<g>
		<rect x="15" y="155.6" width="52" height="30" data-original="#000000" class="active-path" data-old_color="#000000" fill="#FFFFFF"/>
	</g>
</g><g>
	<g>
		<rect y="205.6" width="67" height="30" data-original="#000000" class="active-path" data-old_color="#000000" fill="#FFFFFF"/>
	</g>
</g><g>
	<g>
		<rect x="15" y="255.6" width="52" height="30" data-original="#000000" class="active-path" data-old_color="#000000" fill="#FFFFFF"/>
	</g>
</g></g> </svg>
